<!DOCTYPE svg PUBLIC "-//W3C//DTD SVG 1.1//EN" "http://www.w3.org/Graphics/SVG/1.1/DTD/svg11.dtd">
<!-- Uploaded to: SVG Repo, www.svgrepo.com, Transformed by: SVG Repo Mixer Tools -->
<svg width="800px" height="800px" viewBox="0 0 24 24" fill="none" xmlns="http://www.w3.org/2000/svg">
<g id="SVGRepo_bgCarrier" stroke-width="0"/>
<g id="SVGRepo_tracerCarrier" stroke-linecap="round" stroke-linejoin="round"/>
<g id="SVGRepo_iconCarrier"> <path d="M21 5C21 6.65685 16.9706 8 12 8C7.02944 8 3 6.65685 3 5M21 5C21 3.34315 16.9706 2 12 2C7.02944 2 3 3.34315 3 5M21 5V19C21 20.66 17 22 12 22C7 22 3 20.66 3 19V5M21 12C21 13.66 17 15 12 15C7 15 3 13.66 3 12" stroke="#030213" stroke-width="2" stroke-linecap="round" stroke-linejoin="round"/> </g>
</svg>